<svg width="200" height="200" viewBox="0 0 200 200" xmlns="http://www.w3.org/2000/svg">
  <!-- Cat Body -->
  <ellipse cx="100" cy="130" rx="50" ry="60" fill="red" />
  
  <!-- Cat Head -->
  <circle cx="100" cy="80" r="40" fill="red" />
  
  <!-- Cat Ears -->
  <polygon points="70,50 85,20 100,50" fill="red"/>
  <polygon points="130,50 115,20 100,50" fill="red"/>

  <!-- Cat Eyes -->
  <circle cx="85" cy="75" r="6" fill="white"/>
  <circle cx="115" cy="75" r="6" fill="white"/>
  <circle cx="85" cy="75" r="3" fill="black"/>
  <circle cx="115" cy="75" r="3" fill="black"/>

  <!-- Cat Nose -->
  <polygon points="95,85 105,85 100,95" fill="pink"/>

  <!-- Cat Mouth -->
  <path d="M100 95 Q90 110 80 100" stroke="black" fill="transparent"/>
  <path d="M100 95 Q110 110 120 100" stroke="black" fill="transparent"/>

  <!-- Cat Whiskers -->
  <line x1="70" y1="90" x2="40" y2="80" stroke="black"/>
  <line x1="70" y1="100" x2="40" y2="100" stroke="black"/>
  <line x1="70" y1="110" x2="40" y2="120" stroke="black"/>
  <line x1="130" y1="90" x2="160" y2="80" stroke="black"/>
  <line x1="130" y1="100" x2="160" y2="100" stroke="black"/>
  <line x1="130" y1="110" x2="160" y2="120" stroke="black"/>

  <!-- Cat Tail -->
  <path d="M150 140 Q170 130 160 110 Q150 90 170 80" stroke="red" stroke-width="8" fill="none"/>
</svg>
