<svg width="200" height="200" viewBox="0 0 200 200" xmlns="http://www.w3.org/2000/svg">
  <!-- Cat Body -->
  <ellipse cx="100" cy="130" rx="50" ry="60" fill="#8B5A2B" /> 
  
  <!-- Cat Head -->
  <circle cx="100" cy="80" r="40" fill="#8B5A2B" /> 

  <!-- Cat Ears -->
  <polygon points="70,50 85,20 100,50" fill="#8B5A2B"/>
  <polygon points="130,50 115,20 100,50" fill="#8B5A2B"/>

  <!-- Cat Eyes (Now Blue) -->
  <circle cx="85" cy="75" r="6" fill="white"/>
  <circle cx="115" cy="75" r="6" fill="white"/>
  <circle cx="85" cy="75" r="3" fill="blue"/>
  <circle cx="115" cy="75" r="3" fill="blue"/>

  <!-- Cat Nose -->
  <polygon points="95,85 105,85 100,95" fill="pink"/>

  <!-- Cat Mouth (Slightly Different) -->
  <path d="M90 95 Q100 115 110 95" stroke="black" fill="transparent"/>
  
  <!-- Cat Whiskers (Darker) -->
  <line x1="70" y1="90" x2="40" y2="80" stroke="#4B2E1F"/>
  <line x1="70" y1="100" x2="40" y2="100" stroke="#4B2E1F"/>
  <line x1="70" y1="110" x2="40" y2="120" stroke="#4B2E1F"/>
  <line x1="130" y1="90" x2="160" y2="80" stroke="#4B2E1F"/>
  <line x1="130" y1="100" x2="160" y2="100" stroke="#4B2E1F"/>
  <line x1="130" y1="110" x2="160" y2="120" stroke="#4B2E1F"/>

  <!-- Cat Tail -->
  <path d="M150 140 Q170 130 160 110 Q150 90 170 80" stroke="#8B5A2B" stroke-width="8" fill="none"/>

  <!-- Fur details -->
  <path d="M80 65 Q100 50 120 65" stroke="#4B2E1F" stroke-width="2" fill="none"/>
</svg>
